<?xml version="1.0" encoding="UTF-8"?>
<svg xmlns="http://www.w3.org/2000/svg" xmlns:xlink="http://www.w3.org/1999/xlink" width="222.782552" height="323.55599" viewBox="0 0 222.782552 323.55599">
<path fill-rule="nonzero" fill="rgb(100%, 100%, 100%)" fill-opacity="1" stroke-width="0.5" stroke-linecap="butt" stroke-linejoin="miter" stroke="rgb(0%, 0%, 0%)" stroke-opacity="1" stroke-miterlimit="4" d="M 166.836914 235.546875 C 166.836914 239.326172 163.749023 242.416992 159.966797 242.416992 L 7.110352 242.416992 C 3.336914 242.416992 0.249023 239.326172 0.249023 235.546875 L 0.249023 7.119141 C 0.249023 3.342773 3.336914 0.249023 7.110352 0.249023 L 159.966797 0.249023 C 163.749023 0.249023 166.836914 3.342773 166.836914 7.119141 Z M 166.836914 235.546875 " transform="matrix(1.333333, 0, 0, 1.333333, 0.000000000000014211, 0)"/>
<path fill-rule="nonzero" fill="rgb(87.45098%, 0%, 0%)" fill-opacity="1" d="M 12.25 27.15625 L 16 26.65625 C 16.433594 28.78125 17.160156 30.3125 18.199219 31.25 C 19.234375 32.1875 20.496094 32.65625 21.980469 32.65625 C 23.746094 32.65625 25.234375 32.046875 26.449219 30.824219 C 27.660156 29.597656 28.269531 28.089844 28.269531 26.28125 C 28.269531 24.558594 27.707031 23.140625 26.582031 22.019531 C 25.457031 20.902344 24.027344 20.34375 22.292969 20.34375 C 21.582031 20.34375 20.703125 20.484375 19.644531 20.761719 L 20.0625 17.46875 C 20.3125 17.496094 20.515625 17.511719 20.667969 17.511719 C 22.265625 17.511719 23.703125 17.09375 24.980469 16.261719 C 26.253906 15.425781 26.894531 14.140625 26.894531 12.40625 C 26.894531 11.03125 26.433594 9.890625 25.5 8.988281 C 24.566406 8.089844 23.371094 7.636719 21.894531 7.636719 C 20.4375 7.636719 19.222656 8.09375 18.25 9.011719 C 17.277344 9.925781 16.652344 11.300781 16.375 13.136719 L 12.625 12.46875 C 13.082031 9.953125 14.125 8.003906 15.75 6.625 C 17.375 5.246094 19.394531 4.550781 21.8125 4.550781 C 23.480469 4.550781 25.015625 4.910156 26.417969 5.625 C 27.816406 6.339844 28.890625 7.316406 29.636719 8.550781 C 30.378906 9.785156 30.75 11.097656 30.75 12.488281 C 30.75 13.808594 30.394531 15.011719 29.6875 16.09375 C 28.980469 17.175781 27.933594 18.035156 26.542969 18.675781 C 28.347656 19.09375 29.75 19.957031 30.75 21.269531 C 31.75 22.582031 32.25 24.222656 32.25 26.199219 C 32.25 28.863281 31.277344 31.125 29.332031 32.980469 C 27.390625 34.832031 24.933594 35.761719 21.957031 35.761719 C 19.277344 35.761719 17.050781 34.964844 15.28125 33.363281 C 13.511719 31.765625 12.5 29.699219 12.25 27.15625 Z M 10.457031 -3.40625 "/>
<path fill-rule="nonzero" fill="rgb(87.45098%, 0%, 0%)" fill-opacity="1" d="M 210.859375 297.015625 L 207.109375 297.515625 C 206.675781 295.390625 205.949219 293.859375 204.910156 292.921875 C 203.875 291.984375 202.613281 291.515625 201.128906 291.515625 C 199.363281 291.515625 197.875 292.125 196.660156 293.347656 C 195.449219 294.574219 194.839844 296.082031 194.839844 297.890625 C 194.839844 299.613281 195.402344 301.03125 196.527344 302.152344 C 197.652344 303.269531 199.082031 303.828125 200.816406 303.828125 C 201.527344 303.828125 202.40625 303.6875 203.464844 303.410156 L 203.046875 306.703125 C 202.796875 306.675781 202.59375 306.660156 202.441406 306.660156 C 200.84375 306.660156 199.40625 307.078125 198.128906 307.910156 C 196.855469 308.746094 196.214844 310.03125 196.214844 311.765625 C 196.214844 313.140625 196.675781 314.28125 197.609375 315.183594 C 198.542969 316.082031 199.738281 316.535156 201.214844 316.535156 C 202.671875 316.535156 203.886719 316.078125 204.859375 315.160156 C 205.832031 314.246094 206.457031 312.871094 206.734375 311.035156 L 210.484375 311.703125 C 210.027344 314.21875 208.984375 316.167969 207.359375 317.546875 C 205.734375 318.925781 203.714844 319.621094 201.296875 319.621094 C 199.628906 319.621094 198.09375 319.261719 196.691406 318.546875 C 195.292969 317.832031 194.21875 316.855469 193.472656 315.621094 C 192.730469 314.386719 192.359375 313.074219 192.359375 311.683594 C 192.359375 310.363281 192.714844 309.160156 193.421875 308.078125 C 194.128906 306.996094 195.175781 306.136719 196.566406 305.496094 C 194.761719 305.078125 193.359375 304.214844 192.359375 302.902344 C 191.359375 301.589844 190.859375 299.949219 190.859375 297.972656 C 190.859375 295.308594 191.832031 293.046875 193.777344 291.191406 C 195.71875 289.339844 198.175781 288.410156 201.152344 288.410156 C 203.832031 288.410156 206.058594 289.207031 207.828125 290.808594 C 209.597656 292.40625 210.609375 294.472656 210.859375 297.015625 Z M 212.652344 327.578125 "/>
<path fill-rule="nonzero" fill="rgb(87.45098%, 0%, 0%)" fill-opacity="1" d="M 29.011719 49.675781 C 24.84375 44.035156 22.625 38.304688 22.625 38.304688 C 22.625 38.304688 20.40625 44.035156 16.238281 49.675781 C 12.066406 55.3125 6.871094 58.980469 6.871094 58.980469 C 6.871094 58.980469 12.066406 62.648438 16.238281 68.289062 C 20.40625 73.925781 22.625 79.660156 22.625 79.660156 C 22.625 79.660156 24.84375 73.925781 29.011719 68.289062 C 33.183594 62.648438 38.378906 58.980469 38.378906 58.980469 C 38.378906 58.980469 33.183594 55.3125 29.011719 49.675781 Z M 29.011719 49.675781 "/>
<path fill-rule="nonzero" fill="rgb(87.45098%, 0%, 0%)" fill-opacity="1" d="M 207.214844 255.367188 C 203.046875 249.726562 200.828125 243.996094 200.828125 243.996094 C 200.828125 243.996094 198.609375 249.726562 194.441406 255.367188 C 190.269531 261.003906 185.074219 264.671875 185.074219 264.671875 C 185.074219 264.671875 190.269531 268.335938 194.441406 273.976562 C 198.609375 279.617188 200.828125 285.347656 200.828125 285.347656 C 200.828125 285.347656 203.046875 279.617188 207.214844 273.976562 C 211.386719 268.335938 216.582031 264.671875 216.582031 264.671875 C 216.582031 264.671875 211.386719 261.003906 207.214844 255.367188 Z M 207.214844 255.367188 "/>
<path fill-rule="nonzero" fill="rgb(87.45098%, 0%, 0%)" fill-opacity="1" d="M 121.765625 239.722656 C 114.457031 229.839844 110.570312 219.792969 110.570312 219.792969 C 110.570312 219.792969 106.683594 229.839844 99.378906 239.722656 C 92.070312 249.601562 82.964844 256.027344 82.964844 256.027344 C 82.964844 256.027344 92.070312 262.453125 99.378906 272.339844 C 106.683594 282.21875 110.570312 292.265625 110.570312 292.265625 C 110.570312 292.265625 114.457031 282.21875 121.765625 272.339844 C 129.074219 262.453125 138.179688 256.027344 138.179688 256.027344 C 138.179688 256.027344 129.074219 249.601562 121.765625 239.722656 Z M 121.765625 239.722656 "/>
<path fill-rule="nonzero" fill="rgb(87.45098%, 0%, 0%)" fill-opacity="1" d="M 121.765625 51.453125 C 114.457031 41.566406 110.570312 31.523438 110.570312 31.523438 C 110.570312 31.523438 106.683594 41.566406 99.378906 51.453125 C 92.070312 61.332031 82.964844 67.757812 82.964844 67.757812 C 82.964844 67.757812 92.070312 74.183594 99.378906 84.070312 C 106.683594 93.949219 110.570312 103.996094 110.570312 103.996094 C 110.570312 103.996094 114.457031 93.949219 121.765625 84.070312 C 129.074219 74.183594 138.179688 67.757812 138.179688 67.757812 C 138.179688 67.757812 129.074219 61.332031 121.765625 51.453125 Z M 121.765625 51.453125 "/>
<path fill-rule="nonzero" fill="rgb(87.45098%, 0%, 0%)" fill-opacity="1" d="M 121.765625 144.386719 C 114.457031 134.503906 110.570312 124.457031 110.570312 124.457031 C 110.570312 124.457031 106.683594 134.503906 99.378906 144.386719 C 92.070312 154.265625 82.964844 160.695312 82.964844 160.695312 C 82.964844 160.695312 92.070312 167.117188 99.378906 177.003906 C 106.683594 186.886719 110.570312 196.929688 110.570312 196.929688 C 110.570312 196.929688 114.457031 186.886719 121.765625 177.003906 C 129.074219 167.117188 138.179688 160.695312 138.179688 160.695312 C 138.179688 160.695312 129.074219 154.265625 121.765625 144.386719 Z M 121.765625 144.386719 "/>
</svg>
