<?xml version="1.0" encoding="UTF-8"?>
<svg xmlns="http://www.w3.org/2000/svg" xmlns:xlink="http://www.w3.org/1999/xlink" width="222.782552" height="323.55599" viewBox="0 0 222.782552 323.55599">
<path fill-rule="nonzero" fill="rgb(100%, 100%, 100%)" fill-opacity="1" stroke-width="0.5" stroke-linecap="butt" stroke-linejoin="miter" stroke="rgb(0%, 0%, 0%)" stroke-opacity="1" stroke-miterlimit="4" d="M 166.836914 235.546875 C 166.836914 239.326172 163.749023 242.416992 159.966797 242.416992 L 7.110352 242.416992 C 3.336914 242.416992 0.249023 239.326172 0.249023 235.546875 L 0.249023 7.119141 C 0.249023 3.342773 3.336914 0.249023 7.110352 0.249023 L 159.966797 0.249023 C 163.749023 0.249023 166.836914 3.342773 166.836914 7.119141 Z M 166.836914 235.546875 " transform="matrix(1.333333, 0, 0, 1.333333, 0.000000000000014211, 0)"/>
<path fill-rule="nonzero" fill="rgb(87.45098%, 0%, 0%)" fill-opacity="1" d="M 13.472656 29.347656 L 17.410156 29.015625 C 17.703125 30.933594 18.378906 32.375 19.441406 33.339844 C 20.503906 34.300781 21.785156 34.785156 23.285156 34.785156 C 25.09375 34.785156 26.621094 34.105469 27.871094 32.746094 C 29.121094 31.386719 29.746094 29.578125 29.746094 27.328125 C 29.746094 25.1875 29.144531 23.5 27.941406 22.265625 C 26.738281 21.03125 25.167969 20.410156 23.222656 20.410156 C 22.015625 20.410156 20.925781 20.6875 19.953125 21.234375 C 18.980469 21.78125 18.21875 22.496094 17.660156 23.371094 L 14.140625 22.910156 L 17.097656 7.222656 L 32.285156 7.222656 L 32.285156 10.808594 L 20.097656 10.808594 L 18.453125 19.015625 C 20.285156 17.738281 22.207031 17.097656 24.222656 17.097656 C 26.890625 17.097656 29.140625 18.019531 30.972656 19.871094 C 32.808594 21.71875 33.722656 24.09375 33.722656 26.996094 C 33.722656 29.761719 32.917969 32.144531 31.308594 34.160156 C 29.347656 36.636719 26.675781 37.871094 23.285156 37.871094 C 20.511719 37.871094 18.238281 37.09375 16.484375 35.535156 C 14.730469 33.980469 13.722656 31.917969 13.472656 29.347656 Z M 11.703125 -1.277344 "/>
<path fill-rule="nonzero" fill="rgb(87.45098%, 0%, 0%)" fill-opacity="1" d="M 31.109375 43.042969 C 23.871094 43.042969 22.902344 50.308594 22.902344 50.308594 C 22.902344 50.308594 21.9375 43.042969 14.695312 43.042969 C 9.628906 43.042969 5.042969 46.300781 5.042969 52.445312 C 5.042969 60.5625 19.730469 68.730469 22.902344 80.652344 C 25.921875 68.738281 40.761719 60.5625 40.761719 52.445312 C 40.761719 46.300781 36.175781 43.042969 31.109375 43.042969 Z M 31.109375 43.042969 "/>
<path fill-rule="nonzero" fill="rgb(87.45098%, 0%, 0%)" fill-opacity="1" d="M 209.984375 292.6875 L 206.046875 293.019531 C 205.753906 291.105469 205.078125 289.660156 204.015625 288.699219 C 202.953125 287.734375 201.671875 287.25 200.171875 287.25 C 198.363281 287.25 196.839844 287.933594 195.589844 289.292969 C 194.339844 290.652344 193.714844 292.457031 193.714844 294.707031 C 193.714844 296.847656 194.3125 298.535156 195.515625 299.769531 C 196.71875 301.003906 198.292969 301.625 200.234375 301.625 C 201.441406 301.625 202.53125 301.347656 203.503906 300.800781 C 204.480469 300.253906 205.238281 299.542969 205.796875 298.667969 L 209.316406 299.125 L 206.359375 314.8125 L 191.171875 314.8125 L 191.171875 311.230469 L 203.359375 311.230469 L 205.003906 303.019531 C 203.171875 304.296875 201.25 304.9375 199.234375 304.9375 C 196.566406 304.9375 194.316406 304.015625 192.484375 302.167969 C 190.652344 300.316406 189.734375 297.941406 189.734375 295.042969 C 189.734375 292.277344 190.542969 289.890625 192.152344 287.875 C 194.109375 285.402344 196.78125 284.167969 200.171875 284.167969 C 202.949219 284.167969 205.21875 284.941406 206.972656 286.5 C 208.730469 288.058594 209.734375 290.121094 209.984375 292.6875 Z M 211.753906 323.3125 "/>
<path fill-rule="nonzero" fill="rgb(87.45098%, 0%, 0%)" fill-opacity="1" d="M 192 278.996094 C 199.242188 278.996094 200.207031 271.730469 200.207031 271.730469 C 200.207031 271.730469 201.175781 278.996094 208.414062 278.996094 C 213.480469 278.996094 218.066406 275.738281 218.066406 269.59375 C 218.066406 261.472656 203.378906 253.308594 200.207031 241.386719 C 197.191406 253.300781 182.347656 261.472656 182.347656 269.59375 C 182.347656 275.738281 186.933594 278.996094 192 278.996094 Z M 192 278.996094 "/>
<path fill-rule="nonzero" fill="rgb(87.45098%, 0%, 0%)" fill-opacity="1" d="M 88.4375 55.269531 C 76.421875 55.269531 74.816406 67.328125 74.816406 67.328125 C 74.816406 67.328125 73.210938 55.269531 61.195312 55.269531 C 52.785156 55.269531 45.171875 60.675781 45.171875 70.875 C 45.171875 84.351562 69.550781 97.902344 74.816406 117.691406 C 79.824219 97.917969 104.460938 84.351562 104.460938 70.875 C 104.460938 60.675781 96.847656 55.269531 88.4375 55.269531 Z M 88.4375 55.269531 "/>
<path fill-rule="nonzero" fill="rgb(87.45098%, 0%, 0%)" fill-opacity="1" d="M 61.195312 267.558594 C 73.210938 267.558594 74.816406 255.503906 74.816406 255.503906 C 74.816406 255.503906 76.421875 267.558594 88.4375 267.558594 C 96.847656 267.558594 104.460938 262.152344 104.460938 251.953125 C 104.460938 238.480469 80.082031 224.925781 74.816406 205.140625 C 69.808594 224.910156 45.171875 238.480469 45.171875 251.953125 C 45.171875 262.152344 52.785156 267.558594 61.195312 267.558594 Z M 61.195312 267.558594 "/>
<path fill-rule="nonzero" fill="rgb(87.45098%, 0%, 0%)" fill-opacity="1" d="M 161.226562 55.632812 C 149.210938 55.632812 147.605469 67.691406 147.605469 67.691406 C 147.605469 67.691406 146 55.632812 133.984375 55.632812 C 125.574219 55.632812 117.964844 61.039062 117.964844 71.238281 C 117.964844 84.714844 142.339844 98.265625 147.605469 118.054688 C 152.617188 98.28125 177.25 84.714844 177.25 71.238281 C 177.25 61.039062 169.636719 55.632812 161.226562 55.632812 Z M 161.226562 55.632812 "/>
<path fill-rule="nonzero" fill="rgb(87.45098%, 0%, 0%)" fill-opacity="1" d="M 133.984375 267.921875 C 146 267.921875 147.605469 255.867188 147.605469 255.867188 C 147.605469 255.867188 149.210938 267.921875 161.226562 267.921875 C 169.636719 267.921875 177.25 262.515625 177.25 252.316406 C 177.25 238.84375 152.871094 225.289062 147.605469 205.503906 C 142.597656 225.273438 117.964844 238.84375 117.964844 252.316406 C 117.964844 262.515625 125.574219 267.921875 133.984375 267.921875 Z M 133.984375 267.921875 "/>
<path fill-rule="nonzero" fill="rgb(87.45098%, 0%, 0%)" fill-opacity="1" d="M 124.570312 135.527344 C 112.554688 135.527344 110.953125 147.582031 110.953125 147.582031 C 110.953125 147.582031 109.347656 135.527344 97.332031 135.527344 C 88.917969 135.527344 81.308594 140.933594 81.308594 151.132812 C 81.308594 164.609375 105.6875 178.160156 110.953125 197.949219 C 115.960938 178.175781 140.59375 164.609375 140.59375 151.132812 C 140.59375 140.933594 132.984375 135.527344 124.570312 135.527344 Z M 124.570312 135.527344 "/>
</svg>
